<svg width="28" height="28" viewBox="0 0 28 28" fill="none" xmlns="http://www.w3.org/2000/svg">
<path d="M23.3333 13.8017C23.0239 13.8017 22.7272 13.9246 22.5084 14.1434C22.2896 14.3622 22.1667 14.6589 22.1667 14.9683V21.4667C22.1667 21.6523 22.0929 21.8304 21.9616 21.9616C21.8304 22.0929 21.6523 22.1667 21.4667 22.1667H6.53333C6.34768 22.1667 6.16963 22.0929 6.03836 21.9616C5.90708 21.8304 5.83333 21.6523 5.83333 21.4667V6.53333C5.83333 6.34768 5.90708 6.16963 6.03836 6.03836C6.16963 5.90708 6.34768 5.83333 6.53333 5.83333H17.6983C18.0078 5.83333 18.3045 5.71042 18.5233 5.49162C18.7421 5.27283 18.865 4.97609 18.865 4.66667C18.865 4.35725 18.7421 4.0605 18.5233 3.84171C18.3045 3.62292 18.0078 3.5 17.6983 3.5H6.53333C5.72979 3.50307 4.96003 3.82364 4.39184 4.39184C3.82364 4.96003 3.50307 5.72979 3.5 6.53333V21.4667C3.50307 22.2702 3.82364 23.04 4.39184 23.6082C4.96003 24.1764 5.72979 24.4969 6.53333 24.5H21.4667C22.2702 24.4969 23.04 24.1764 23.6082 23.6082C24.1764 23.04 24.4969 22.2702 24.5 21.4667V14.9683C24.5 14.6589 24.3771 14.3622 24.1583 14.1434C23.9395 13.9246 23.6428 13.8017 23.3333 13.8017Z" fill="#49AD91"/>
<path d="M12.5064 12.8334C12.2874 12.6366 12.0022 12.5297 11.7078 12.5344C11.4134 12.5391 11.1316 12.6549 10.919 12.8586C10.7064 13.0623 10.5787 13.3389 10.5616 13.6328C10.5444 13.9268 10.639 14.2163 10.8264 14.4434L13.4164 17.1618C13.5248 17.2755 13.6551 17.3662 13.7995 17.4284C13.9438 17.4905 14.0992 17.5228 14.2564 17.5234C14.4127 17.5244 14.5676 17.4938 14.7119 17.4337C14.8562 17.3736 14.9869 17.2851 15.0964 17.1734L23.0064 9.00678C23.1136 8.89647 23.1981 8.76611 23.255 8.62316C23.3118 8.4802 23.34 8.32745 23.3378 8.17361C23.3356 8.01978 23.3032 7.86787 23.2423 7.72658C23.1815 7.58528 23.0934 7.45736 22.983 7.35011C22.8727 7.24287 22.7424 7.1584 22.5994 7.10153C22.4565 7.04466 22.3037 7.0165 22.1499 7.01867C21.996 7.02084 21.8441 7.05328 21.7028 7.11416C21.5615 7.17503 21.4336 7.26313 21.3264 7.37344L14.268 14.6768L12.5064 12.8334Z" fill="#49AD91"/>
</svg>
