<svg width="24" height="25" viewBox="0 0 24 25" fill="none" xmlns="http://www.w3.org/2000/svg">
<path d="M20.8401 5.11012C20.3294 4.59912 19.7229 4.19376 19.0555 3.9172C18.388 3.64064 17.6726 3.49829 16.9501 3.49829C16.2276 3.49829 15.5122 3.64064 14.8448 3.9172C14.1773 4.19376 13.5709 4.59912 13.0601 5.11012L12.0001 6.17012L10.9401 5.11012C9.90843 4.07842 8.50915 3.49883 7.05012 3.49883C5.59109 3.49883 4.19181 4.07842 3.16012 5.11012C2.12843 6.14181 1.54883 7.54108 1.54883 9.00012C1.54883 10.4591 2.12843 11.8584 3.16012 12.8901L4.22012 13.9501L12.0001 21.7301L19.7801 13.9501L20.8401 12.8901C21.3511 12.3794 21.7565 11.7729 22.033 11.1055C22.3096 10.438 22.4519 9.7226 22.4519 9.00012C22.4519 8.27763 22.3096 7.56222 22.033 6.89476C21.7565 6.2273 21.3511 5.62087 20.8401 5.11012Z" stroke="#0B0A0A" strokeWidth="2" strokeLinecap="round" strokeLinejoin="round"/>
</svg>
