<svg width="24" height="25" viewBox="0 0 24 25" fill="none" xmlns="http://www.w3.org/2000/svg">
<path fill-rule="evenodd" clip-rule="evenodd" d="M4.5 2.18579C3.70435 2.18579 2.94129 2.50186 2.37868 3.06447C1.81607 3.62708 1.5 4.39014 1.5 5.18579V20.1858C1.5 20.9814 1.81607 21.7445 2.37868 22.3071C2.94129 22.8697 3.70435 23.1858 4.5 23.1858H19.5C20.2956 23.1858 21.0587 22.8697 21.6213 22.3071C22.1839 21.7445 22.5 20.9814 22.5 20.1858V5.18579C22.5 4.39014 22.1839 3.62708 21.6213 3.06447C21.0587 2.50186 20.2956 2.18579 19.5 2.18579H4.5ZM6.153 8.63129C6.6284 8.63129 7.08433 8.44244 7.42049 8.10628C7.75665 7.77012 7.9455 7.31419 7.9455 6.83879C7.9455 6.36339 7.75665 5.90746 7.42049 5.5713C7.08433 5.23514 6.6284 5.04629 6.153 5.04629C5.6776 5.04629 5.22167 5.23514 4.88551 5.5713C4.54935 5.90746 4.3605 6.36339 4.3605 6.83879C4.3605 7.31419 4.54935 7.77012 4.88551 8.10628C5.22167 8.44244 5.6776 8.63129 6.153 8.63129ZM7.653 19.9053V10.0368H4.653V19.9053H7.653ZM9.645 10.0368H12.645V11.3583C13.0875 10.6653 14.0595 9.73229 15.867 9.73229C18.024 9.73229 19.1955 11.1618 19.1955 13.8813C19.1955 14.0118 19.2075 14.6073 19.2075 14.6073V19.9038H16.2075V14.6088C16.2075 13.8813 16.0545 12.4518 14.4375 12.4518C12.819 12.4518 12.6825 14.2488 12.645 15.4248V19.9038H9.645V10.0368Z" fill="#908B8B"/>
</svg>
